<svg style="display: none">
	<symbol id="Yutube" xmlns="http://www.w3.org/2000/svg" viewBox="0 0 28 29" fill="none">
		<path d="M26.8333 11.4643C26.891 9.7944 26.5258 8.13699 25.7717 6.64597C25.26 6.03417 24.5498 5.6213 23.765 5.4793C20.5188 5.18475 17.2591 5.06402 14 5.11763C10.7528 5.06159 7.50483 5.17842 4.27 5.46763C3.63046 5.58397 3.0386 5.88395 2.56667 6.33097C1.51667 7.2993 1.4 8.95597 1.28333 10.356C1.11406 12.8731 1.11406 15.3988 1.28333 17.916C1.31708 18.7039 1.43441 19.4861 1.63333 20.2493C1.774 20.8385 2.05861 21.3837 2.46166 21.836C2.93681 22.3067 3.54245 22.6237 4.2 22.746C6.71523 23.0564 9.24959 23.1851 11.7833 23.131C15.8667 23.1893 19.4483 23.131 23.6833 22.8043C24.357 22.6896 24.9797 22.3721 25.4683 21.8943C25.795 21.5675 26.0389 21.1676 26.18 20.7276C26.5972 19.4474 26.8022 18.1074 26.7867 16.761C26.8333 16.1076 26.8333 12.1643 26.8333 11.4643ZM11.3633 17.461V10.2393L18.27 13.8676C16.3333 14.941 13.7783 16.1543 11.3633 17.461Z" fill="#E7D9FD"/>
	</symbol>
	<symbol id="Instagram" xmlns="http://www.w3.org/2000/svg" viewBox="0 0 28 29" fill="none">
		<path d="M15.1993 2.47019C16.0507 2.46692 16.902 2.47548 17.7532 2.49585L17.9795 2.50402C18.2408 2.51335 18.4987 2.52502 18.8102 2.53902C20.0515 2.59735 20.8985 2.79335 21.6417 3.08152C22.4117 3.37785 23.0603 3.77919 23.709 4.42785C24.3021 5.01073 24.7611 5.71579 25.0542 6.49402C25.3423 7.23719 25.5383 8.08535 25.5967 9.32669C25.6107 9.63702 25.6223 9.89602 25.6317 10.1574L25.6387 10.3837C25.6594 11.2344 25.6683 12.0854 25.6655 12.9364L25.6667 13.8067V15.335C25.6695 16.1864 25.6606 17.0377 25.6398 17.8889L25.6328 18.1152C25.6235 18.3765 25.6118 18.6344 25.5978 18.9459C25.5395 20.1872 25.3412 21.0342 25.0542 21.7774C24.7621 22.5564 24.3029 23.2621 23.709 23.8447C23.1256 24.4377 22.4202 24.8967 21.6417 25.1899C20.8985 25.478 20.0515 25.674 18.8102 25.7324C18.4987 25.7464 18.2408 25.758 17.9795 25.7674L17.7532 25.7744C16.9021 25.7951 16.0507 25.804 15.1993 25.8012L14.329 25.8024H12.8018C11.9505 25.8052 11.0991 25.7963 10.248 25.7755L10.0217 25.7685C9.74471 25.7585 9.46782 25.7468 9.191 25.7335C7.94967 25.6752 7.10267 25.4769 6.35833 25.1899C5.5798 24.8974 4.87461 24.4383 4.29217 23.8447C3.69839 23.2617 3.23893 22.5562 2.94583 21.7774C2.65767 21.0342 2.46167 20.1872 2.40333 18.9459C2.39034 18.669 2.37867 18.3921 2.36833 18.1152L2.3625 17.8889C2.34099 17.0378 2.33127 16.1864 2.33333 15.335V12.9364C2.33008 12.0854 2.33863 11.2344 2.359 10.3837L2.36717 10.1574C2.3765 9.89602 2.38817 9.63702 2.40217 9.32669C2.4605 8.08419 2.6565 7.23835 2.94467 6.49402C3.23794 5.71541 3.69829 5.01054 4.29333 4.42902C4.87538 3.8349 5.58012 3.37502 6.35833 3.08152C7.10267 2.79335 7.9485 2.59735 9.191 2.53902L10.0217 2.50402L10.248 2.49819C11.0987 2.47669 11.9497 2.46696 12.8007 2.46902L15.1993 2.47019ZM14 8.30352C13.2271 8.29259 12.4597 8.43538 11.7425 8.7236C11.0252 9.01182 10.3724 9.43971 9.82199 9.98242C9.27155 10.5251 8.83447 11.1718 8.53614 11.8849C8.2378 12.598 8.08417 13.3633 8.08417 14.1363C8.08417 14.9093 8.2378 15.6745 8.53614 16.3876C8.83447 17.1007 9.27155 17.7474 9.82199 18.2901C10.3724 18.8328 11.0252 19.2607 11.7425 19.5489C12.4597 19.8372 13.2271 19.98 14 19.969C15.5471 19.969 17.0308 19.3544 18.1248 18.2605C19.2188 17.1665 19.8333 15.6828 19.8333 14.1357C19.8333 12.5886 19.2188 11.1049 18.1248 10.0109C17.0308 8.91693 15.5471 8.30352 14 8.30352ZM14 10.6369C14.4649 10.6283 14.9269 10.7124 15.3589 10.8844C15.791 11.0564 16.1844 11.3128 16.5162 11.6385C16.8481 11.9642 17.1117 12.3528 17.2917 12.7816C17.4717 13.2103 17.5644 13.6707 17.5645 14.1357C17.5646 14.6007 17.472 15.061 17.2921 15.4899C17.1123 15.9187 16.8488 16.3074 16.5171 16.6332C16.1853 16.9591 15.792 17.2155 15.36 17.3877C14.928 17.5598 14.4661 17.6441 14.0012 17.6357C13.0729 17.6357 12.1827 17.2669 11.5263 16.6106C10.8699 15.9542 10.5012 15.0639 10.5012 14.1357C10.5012 13.2074 10.8699 12.3172 11.5263 11.6608C12.1827 11.0044 13.0729 10.6357 14.0012 10.6357L14 10.6369ZM20.125 6.55352C19.7486 6.56858 19.3927 6.72869 19.1317 7.00032C18.8707 7.27194 18.725 7.63401 18.725 8.01069C18.725 8.38736 18.8707 8.74943 19.1317 9.02105C19.3927 9.29268 19.7486 9.45279 20.125 9.46785C20.5118 9.46785 20.8827 9.31421 21.1562 9.04072C21.4297 8.76723 21.5833 8.39629 21.5833 8.00952C21.5833 7.62275 21.4297 7.25181 21.1562 6.97832C20.8827 6.70483 20.5118 6.55119 20.125 6.55119V6.55352Z" fill="#E7D9FD"/>
		</symbol>
		<symbol id="Whatsapp" xmlns="http://www.w3.org/2000/svg" viewBox="0 0 28 29" fill="none">
			<path d="M14.0012 2.46924C20.4447 2.46924 25.6678 7.69241 25.6678 14.1359C25.6678 20.5794 20.4447 25.8026 14.0012 25.8026C11.9394 25.8059 9.91393 25.2603 8.13283 24.2217L2.33917 25.8026L3.9165 20.0066C2.87711 18.2249 2.33106 16.1986 2.3345 14.1359C2.3345 7.69241 7.55767 2.46924 14.0012 2.46924ZM10.0252 8.65257L9.79183 8.6619C9.64078 8.6711 9.49314 8.71079 9.35783 8.77857C9.23127 8.85024 9.11575 8.93983 9.01483 9.04457C8.87483 9.1764 8.7955 9.29074 8.71033 9.40157C8.27881 9.96263 8.04647 10.6514 8.05 11.3592C8.05233 11.9309 8.20167 12.4874 8.435 13.0077C8.91217 14.0601 9.69733 15.1742 10.7333 16.2067C10.983 16.4552 11.228 16.7049 11.4917 16.9371C12.779 18.0704 14.313 18.8878 15.9717 19.3241L16.6343 19.4256C16.8502 19.4372 17.066 19.4209 17.283 19.4104C17.6228 19.3929 17.9545 19.3009 18.2548 19.1409C18.4076 19.0622 18.5567 18.9766 18.7017 18.8842C18.7017 18.8842 18.7518 18.8516 18.8475 18.7792C19.005 18.6626 19.1018 18.5797 19.2325 18.4432C19.3293 18.3429 19.4133 18.2251 19.4775 18.0909C19.5685 17.9007 19.6595 17.5379 19.6968 17.2357C19.7248 17.0047 19.7167 16.8787 19.7132 16.8006C19.7085 16.6757 19.6047 16.5462 19.4915 16.4914L18.8125 16.1869C18.8125 16.1869 17.7975 15.7447 17.1768 15.4624C17.1119 15.434 17.0423 15.4178 16.9715 15.4146C16.8917 15.4064 16.811 15.4154 16.735 15.4409C16.6589 15.4665 16.5892 15.508 16.5305 15.5627C16.5247 15.5604 16.4465 15.6269 15.603 16.6489C15.5546 16.714 15.4879 16.7631 15.4114 16.7901C15.335 16.8171 15.2522 16.8208 15.1737 16.8006C15.0977 16.7802 15.0232 16.7545 14.9508 16.7236C14.8062 16.6629 14.756 16.6396 14.6568 16.5976C13.9872 16.3054 13.3673 15.9106 12.8193 15.4274C12.6723 15.2991 12.5358 15.1591 12.3958 15.0237C11.9369 14.5842 11.5368 14.0869 11.2058 13.5444L11.137 13.4336C11.0876 13.3591 11.0476 13.2788 11.018 13.1944C10.9737 13.0229 11.0892 12.8852 11.0892 12.8852C11.0892 12.8852 11.3727 12.5749 11.5045 12.4069C11.6328 12.2436 11.7413 12.0849 11.8113 11.9717C11.949 11.7501 11.9922 11.5226 11.9198 11.3464C11.5932 10.5484 11.2548 9.7539 10.9072 8.96524C10.8383 8.8089 10.6342 8.6969 10.4487 8.67474C10.3857 8.66774 10.3227 8.66074 10.2597 8.65607C10.103 8.64829 9.94599 8.64985 9.7895 8.66074L10.024 8.6514L10.0252 8.65257Z" fill="#E7D9FD"/>
		  </symbol>
		  <symbol id="Facebook" xmlns="http://www.w3.org/2000/svg" viewBox="0 0 28 29" fill="none">
			<path d="M14 2.51562C7.58334 2.51562 2.33334 7.75396 2.33334 14.2056C2.33334 20.039 6.60333 24.8806 12.18 25.7556V17.589H9.21667V14.2056H12.18V11.6273C12.18 8.69896 13.9183 7.08896 16.59 7.08896C17.8617 7.08896 19.1917 7.31063 19.1917 7.31063V10.1923H17.7217C16.275 10.1923 15.82 11.0906 15.82 12.0123V14.2056H19.0633L18.5383 17.589H15.82V25.7556C18.5692 25.3214 21.0726 23.9187 22.8783 21.8007C24.6839 19.6827 25.6729 16.9889 25.6667 14.2056C25.6667 7.75396 20.4167 2.51562 14 2.51562Z" fill="#E7D9FD"/>
		  </symbol>
  <symbol
    id="fireFlame"
    viewBox="0 0 16 22"
    fill="none"
    xmlns="http://www.w3.org/2000/svg"
  >
    <path
      d="M14.4799 10.0861C14.2171 9.74335 13.8972 9.44626 13.6001 9.14917C12.8345 8.46358 11.9661 7.97224 11.2348 7.25238C9.53226 5.58411 9.15519 2.83033 10.2407 0.716431C9.15519 0.97924 8.20679 1.57342 7.39551 2.22473C4.43605 4.60143 3.27055 8.79495 4.66458 12.3943C4.71029 12.5086 4.75599 12.6228 4.75599 12.7714C4.75599 13.0227 4.5846 13.2513 4.35607 13.3427C4.09326 13.457 3.81902 13.3884 3.60192 13.2056C3.53668 13.1516 3.48238 13.0857 3.44195 13.0113C2.15076 11.3773 1.94508 9.03491 2.81349 7.16096C0.90527 8.71497 -0.134539 11.3431 0.0140051 13.8226C0.082564 14.3939 0.151123 14.9653 0.345373 15.5366C0.505344 16.2222 0.813859 16.9078 1.15665 17.5134C2.39071 19.4901 4.52746 20.907 6.82419 21.1927C9.26945 21.5012 11.8861 21.0556 13.7601 19.3644C15.8511 17.4676 16.5824 14.4282 15.5083 11.823L15.3598 11.5259C15.1198 11.0003 14.4799 10.0861 14.4799 10.0861ZM10.8692 17.2848C10.5492 17.5591 10.0236 17.8561 9.61225 17.9704C8.33248 18.4275 7.05272 17.7876 6.29857 17.0334C7.65832 16.7135 8.4696 15.708 8.70955 14.691C8.9038 13.7769 8.53816 13.0227 8.38961 12.1429C8.2525 11.2973 8.27535 10.5775 8.58386 9.78905C8.80097 10.2233 9.0295 10.6575 9.30373 11.0003C10.1836 12.1429 11.5662 12.6457 11.8633 14.1997C11.909 14.3596 11.9318 14.5196 11.9318 14.691C11.9661 15.628 11.5547 16.6564 10.8692 17.2848Z"
      fill="currentColor"
    />
  </symbol>
  <symbol
    id="HamburguerMenu"
    viewBox="0 0 32 22"
    fill="none"
    xmlns="http://www.w3.org/2000/svg"
  >
    <path
      id="_hamb"
      d="M1.77778 21.6667C0.795939 21.6667 0 20.8707 0 19.8889C0 18.9071 0.795938 18.1111 1.77778 18.1111H30.2222C31.2041 18.1111 32 18.9071 32 19.8889C32 20.8707 31.2041 21.6667 30.2222 21.6667H1.77778ZM1.77778 12.7778C0.795939 12.7778 0 11.9818 0 11C0 10.0182 0.795938 9.22223 1.77778 9.22223H30.2222C31.2041 9.22223 32 10.0182 32 11C32 11.9818 31.2041 12.7778 30.2222 12.7778H1.77778ZM1.77778 3.8889C0.795939 3.8889 0 3.09296 0 2.11112C0 1.12928 0.795938 0.333344 1.77778 0.333344H30.2222C31.2041 0.333344 32 1.12928 32 2.11112C32 3.09296 31.2041 3.8889 30.2222 3.8889H1.77778Z"
      fill="currentColor"
    />
  </symbol>
  <symbol
    id="Truck"
    xmlns="http://www.w3.org/2000/svg" viewBox="0 0 22 18" fill="none"
  >
    <g clip-path="url(#clip0_20_4737)">
      <path
        d="M4.175 0.583374C3.30547 0.583374 2.6 1.29024 2.6 2.1615V3.73962H1.025C0.73625 3.73962 0.5 3.97634 0.5 4.26567C0.5 4.55499 0.73625 4.79171 1.025 4.79171H9.425C9.71375 4.79171 9.95 5.02843 9.95 5.31775C9.95 5.60707 9.71375 5.84379 9.425 5.84379H2.075C1.78625 5.84379 1.55 6.08051 1.55 6.36983C1.55 6.65915 1.78625 6.89587 2.075 6.89587H8.375C8.66375 6.89587 8.9 7.13259 8.9 7.42192C8.9 7.71124 8.66375 7.94796 8.375 7.94796H1.025C0.73625 7.94796 0.5 8.18468 0.5 8.474C0.5 8.76332 0.73625 9.00004 1.025 9.00004H7.325C7.61375 9.00004 7.85 9.23676 7.85 9.52608C7.85 9.8154 7.61375 10.0521 7.325 10.0521H2.6V14.2605C2.6 16.003 4.01094 17.4167 5.75 17.4167C7.48906 17.4167 8.9 16.003 8.9 14.2605H13.1C13.1 16.003 14.5109 17.4167 16.25 17.4167C17.9891 17.4167 19.4 16.003 19.4 14.2605H20.45C21.0308 14.2605 21.5 13.7903 21.5 13.2084C21.5 12.6264 21.0308 12.1563 20.45 12.1563V8.38523C20.45 7.82631 20.2302 7.2904 19.8364 6.89587L17.3 4.35443C16.9062 3.9599 16.3714 3.73962 15.8136 3.73962H14.15V2.1615C14.15 1.29024 13.4445 0.583374 12.575 0.583374H4.175ZM18.35 8.38523V9.00004H14.15V5.84379H15.8136L18.35 8.38523ZM5.75 12.6823C6.16772 12.6823 6.56832 12.8486 6.86369 13.1446C7.15906 13.4405 7.325 13.8419 7.325 14.2605C7.325 14.679 7.15906 15.0804 6.86369 15.3764C6.56832 15.6723 6.16772 15.8386 5.75 15.8386C5.33228 15.8386 4.93168 15.6723 4.63631 15.3764C4.34094 15.0804 4.175 14.679 4.175 14.2605C4.175 13.8419 4.34094 13.4405 4.63631 13.1446C4.93168 12.8486 5.33228 12.6823 5.75 12.6823ZM14.675 14.2605C14.675 13.8419 14.8409 13.4405 15.1363 13.1446C15.4317 12.8486 15.8323 12.6823 16.25 12.6823C16.6677 12.6823 17.0683 12.8486 17.3637 13.1446C17.6591 13.4405 17.825 13.8419 17.825 14.2605C17.825 14.679 17.6591 15.0804 17.3637 15.3764C17.0683 15.6723 16.6677 15.8386 16.25 15.8386C15.8323 15.8386 15.4317 15.6723 15.1363 15.3764C14.8409 15.0804 14.675 14.679 14.675 14.2605Z"
        fill="currentColor"
      />
    </g>
    <defs>
      <clipPath id="clip0_20_4737">
        <rect
          width="21"
          height="16.8333"
          fill="white"
          transform="translate(0.5 0.583374)"
        />
      </clipPath>
    </defs>
  </symbol>
</svg>
