<svg style="display: none">
  <symbol
    id="fireFlame"
    viewBox="0 0 16 22"
    fill="none"
    xmlns="http://www.w3.org/2000/svg"
  >
    <path
      d="M14.4799 10.0861C14.2171 9.74335 13.8972 9.44626 13.6001 9.14917C12.8345 8.46358 11.9661 7.97224 11.2348 7.25238C9.53226 5.58411 9.15519 2.83033 10.2407 0.716431C9.15519 0.97924 8.20679 1.57342 7.39551 2.22473C4.43605 4.60143 3.27055 8.79495 4.66458 12.3943C4.71029 12.5086 4.75599 12.6228 4.75599 12.7714C4.75599 13.0227 4.5846 13.2513 4.35607 13.3427C4.09326 13.457 3.81902 13.3884 3.60192 13.2056C3.53668 13.1516 3.48238 13.0857 3.44195 13.0113C2.15076 11.3773 1.94508 9.03491 2.81349 7.16096C0.90527 8.71497 -0.134539 11.3431 0.0140051 13.8226C0.082564 14.3939 0.151123 14.9653 0.345373 15.5366C0.505344 16.2222 0.813859 16.9078 1.15665 17.5134C2.39071 19.4901 4.52746 20.907 6.82419 21.1927C9.26945 21.5012 11.8861 21.0556 13.7601 19.3644C15.8511 17.4676 16.5824 14.4282 15.5083 11.823L15.3598 11.5259C15.1198 11.0003 14.4799 10.0861 14.4799 10.0861ZM10.8692 17.2848C10.5492 17.5591 10.0236 17.8561 9.61225 17.9704C8.33248 18.4275 7.05272 17.7876 6.29857 17.0334C7.65832 16.7135 8.4696 15.708 8.70955 14.691C8.9038 13.7769 8.53816 13.0227 8.38961 12.1429C8.2525 11.2973 8.27535 10.5775 8.58386 9.78905C8.80097 10.2233 9.0295 10.6575 9.30373 11.0003C10.1836 12.1429 11.5662 12.6457 11.8633 14.1997C11.909 14.3596 11.9318 14.5196 11.9318 14.691C11.9661 15.628 11.5547 16.6564 10.8692 17.2848Z"
      fill="currentColor"
    />
  </symbol>
  <symbol
    id="HamburguerMenu"
    viewBox="0 0 32 22"
    fill="none"
    xmlns="http://www.w3.org/2000/svg"
  >
    <path
      id="_hamb"
      d="M1.77778 21.6667C0.795939 21.6667 0 20.8707 0 19.8889C0 18.9071 0.795938 18.1111 1.77778 18.1111H30.2222C31.2041 18.1111 32 18.9071 32 19.8889C32 20.8707 31.2041 21.6667 30.2222 21.6667H1.77778ZM1.77778 12.7778C0.795939 12.7778 0 11.9818 0 11C0 10.0182 0.795938 9.22223 1.77778 9.22223H30.2222C31.2041 9.22223 32 10.0182 32 11C32 11.9818 31.2041 12.7778 30.2222 12.7778H1.77778ZM1.77778 3.8889C0.795939 3.8889 0 3.09296 0 2.11112C0 1.12928 0.795938 0.333344 1.77778 0.333344H30.2222C31.2041 0.333344 32 1.12928 32 2.11112C32 3.09296 31.2041 3.8889 30.2222 3.8889H1.77778Z"
      fill="currentColor"
    />
  </symbol>
  <symbol
    id="Truck"
    xmlns="http://www.w3.org/2000/svg" viewBox="0 0 22 18" fill="none"
  >
    <g clip-path="url(#clip0_20_4737)">
      <path
        d="M4.175 0.583374C3.30547 0.583374 2.6 1.29024 2.6 2.1615V3.73962H1.025C0.73625 3.73962 0.5 3.97634 0.5 4.26567C0.5 4.55499 0.73625 4.79171 1.025 4.79171H9.425C9.71375 4.79171 9.95 5.02843 9.95 5.31775C9.95 5.60707 9.71375 5.84379 9.425 5.84379H2.075C1.78625 5.84379 1.55 6.08051 1.55 6.36983C1.55 6.65915 1.78625 6.89587 2.075 6.89587H8.375C8.66375 6.89587 8.9 7.13259 8.9 7.42192C8.9 7.71124 8.66375 7.94796 8.375 7.94796H1.025C0.73625 7.94796 0.5 8.18468 0.5 8.474C0.5 8.76332 0.73625 9.00004 1.025 9.00004H7.325C7.61375 9.00004 7.85 9.23676 7.85 9.52608C7.85 9.8154 7.61375 10.0521 7.325 10.0521H2.6V14.2605C2.6 16.003 4.01094 17.4167 5.75 17.4167C7.48906 17.4167 8.9 16.003 8.9 14.2605H13.1C13.1 16.003 14.5109 17.4167 16.25 17.4167C17.9891 17.4167 19.4 16.003 19.4 14.2605H20.45C21.0308 14.2605 21.5 13.7903 21.5 13.2084C21.5 12.6264 21.0308 12.1563 20.45 12.1563V8.38523C20.45 7.82631 20.2302 7.2904 19.8364 6.89587L17.3 4.35443C16.9062 3.9599 16.3714 3.73962 15.8136 3.73962H14.15V2.1615C14.15 1.29024 13.4445 0.583374 12.575 0.583374H4.175ZM18.35 8.38523V9.00004H14.15V5.84379H15.8136L18.35 8.38523ZM5.75 12.6823C6.16772 12.6823 6.56832 12.8486 6.86369 13.1446C7.15906 13.4405 7.325 13.8419 7.325 14.2605C7.325 14.679 7.15906 15.0804 6.86369 15.3764C6.56832 15.6723 6.16772 15.8386 5.75 15.8386C5.33228 15.8386 4.93168 15.6723 4.63631 15.3764C4.34094 15.0804 4.175 14.679 4.175 14.2605C4.175 13.8419 4.34094 13.4405 4.63631 13.1446C4.93168 12.8486 5.33228 12.6823 5.75 12.6823ZM14.675 14.2605C14.675 13.8419 14.8409 13.4405 15.1363 13.1446C15.4317 12.8486 15.8323 12.6823 16.25 12.6823C16.6677 12.6823 17.0683 12.8486 17.3637 13.1446C17.6591 13.4405 17.825 13.8419 17.825 14.2605C17.825 14.679 17.6591 15.0804 17.3637 15.3764C17.0683 15.6723 16.6677 15.8386 16.25 15.8386C15.8323 15.8386 15.4317 15.6723 15.1363 15.3764C14.8409 15.0804 14.675 14.679 14.675 14.2605Z"
        fill="currentColor"
      />
    </g>
    <defs>
      <clipPath id="clip0_20_4737">
        <rect
          width="21"
          height="16.8333"
          fill="white"
          transform="translate(0.5 0.583374)"
        />
      </clipPath>
    </defs>
  </symbol>
</svg>
